<?xml version="1.0" encoding="utf-8"?>
<!-- Generator: Adobe Illustrator 19.2.1, SVG Export Plug-In . SVG Version: 6.00 Build 0)  -->
<svg version="1.1" id="layer" xmlns="http://www.w3.org/2000/svg" xmlns:xlink="http://www.w3.org/1999/xlink" x="0px" y="0px"
	 viewBox="0 0 652 652" style="enable-background:new 0 0 652 652;" xml:space="preserve" height="36px"
   width="201px">
<style type="text/css">
	.st0{fill:#ff9933;}
	.st1{fill:none;stroke:#ff9933;stroke-width:1.984;}
	.st2{fill:none;stroke:#ff9933;stroke-width:1.6507;}
	.st3{fill:#ff9933;}
	.st4{fill:none;stroke:#ff9933;stroke-width:0.8253;}
	.st5{fill:none;stroke:#ff9933;stroke-width:1.1428;}
	.st6{fill:none;stroke:#ff9933;stroke-width:1.4919;}
	.st7{fill:none;stroke:#ff9933;stroke-width:1.8411;}
	.st8{fill:none;stroke:#ff9933;stroke-width:1.0634;}
	.st9{fill:none;stroke:#ff9933;stroke-width:1.976;}
	.st10{fill:none;stroke:#ff9933;stroke-width:1.4126;}
</style>
<g>
	<path class="st0" d="M37.3,261.2h35.1c11.8,0,22.4,7.7,22.4,20.4c0,8.7-4,14.9-12.7,17l19.3,29.7H76.4l-15.5-32.9h0.3
		c8.2,0,11.3-4.9,11.3-12.8c0-7.7-4.8-12.1-10.5-12.1h-2.5v57.9H37.3V261.2z"/>
	<path class="st0" d="M147.9,299.9h-21v13.9c0,2.9,1.9,4.6,5.6,4.6h19v9.9h-34.5c-7.1,0-12.4-5.1-12.4-13.3v-39.4
		c0-9.1,7.1-14.4,15.2-14.4h30.6v9.9h-19.5c-2.9,0-4,2.3-4,6V290h21V299.9z"/>
	<path class="st0" d="M212.4,317.8c0,5.9-1.2,11.1-8.2,11.1c-4.6,0-7-1.7-9.3-5.6l-23.5-38.1h-0.3v43h-11.1v-55.2
		c0-5.4,1.1-12.5,11.6-12.5c6.7,0,9.9,3.3,13.3,8.7l16.1,25.5h0.3v-33.6h11.1V317.8z"/>
	<rect x="224.6" y="261.2" class="st0" width="22.3" height="67.1"/>
	<path class="st0" d="M284,271.1c-3.4,0-7.7,0.3-7.7,5.6c0,12.4,30,0.9,30,28.2c0,15.6-10.5,23.5-24.3,23.5h-24.1v-9.9h18.9
		c6.2,0,10.2-0.5,10.2-8c0-12.4-32.2-2.3-32.2-27.7c0-14.1,9.9-21.5,23.2-21.5h21.3v9.9H284z"/>
	<polygon class="st0" points="314.4,328.4 314.4,261.2 336.7,261.2 336.7,284.7 352,284.7 352,261.2 374.3,261.2 374.3,328.4
		352,328.4 352,294.6 336.7,294.6 336.7,328.4 	"/>
	<path class="st0" d="M379.5,328.4l17.3-54.3c2.5-7.9,5.4-13.5,14.7-13.5c8.2,0,11.1,6,13.3,12.8l18.1,54.9h-22.3l-3.9-12.4h-22.9
		l-4.2,12.4H379.5z M397,306.7h16.9l-8-27.2h-0.3L397,306.7z"/>
	<path class="st0" d="M457.3,261.2l13.6,48.1h0.3l9.6-33.7l-3.6-14.4h22.4l12.8,48.9h0.3l13.8-48.9h11.3L519,321.9
		c-1.7,5.7-5.6,7.1-11.1,7.1c-8.2,0-13-3.7-15-11.6l-6.3-25.5h-0.3l-6.3,23.7c-2,7.4-6,13.5-14.7,13.5c-8.5,0-12.5-4.5-14.7-12.2
		l-15.6-55.5H457.3z"/>
	<path class="st0" d="M525.1,320.9c0-4.5,3.6-7.8,7.9-7.8c4.2,0,7.9,3.3,7.9,7.8c0,4.5-3.6,7.8-7.9,7.8
		C528.7,328.8,525.1,325.5,525.1,320.9 M533,327.5c3.5,0,6.3-2.8,6.3-6.5c0-3.7-2.8-6.5-6.3-6.5c-3.6,0-6.4,2.8-6.4,6.5
		C526.6,324.7,529.4,327.5,533,327.5 M531.3,325.5H530v-9h3.4c2.1,0,3.2,0.8,3.2,2.6c0,1.6-1,2.3-2.3,2.5l2.6,4h-1.5l-2.4-3.9h-1.6
		V325.5z M533,320.4c1.2,0,2.2-0.1,2.2-1.5c0-1.1-1-1.3-2-1.3h-1.9v2.8H533z"/>
	<path d="M57.2,378c0,2.7,0.6,3.3,1.3,3.6v0.9h-6.5c-0.3-1.1-0.4-1.4-0.6-2.7c-1.4,1.4-3.3,3.3-7.4,3.3c-3.4,0-7-1.9-7-6.7
		c0-4.5,2.8-6.7,6.7-7.3l5.4-0.8c0.9-0.1,2.1-0.5,2.1-1.8c0-2.5-2.4-2.7-4-2.7c-3,0-3.5,1.8-3.7,3.2h-5.8c0.7-7,5.5-8,10.2-8
		c3.2,0,9.1,1,9.1,6.6V378z M51.4,371.3c-0.6,0.5-1.6,0.9-4.1,1.2c-2.2,0.4-4.1,0.9-4.1,3.4c0,2.1,1.6,2.7,2.8,2.7
		c2.7,0,5.4-1.7,5.4-4.5V371.3z"/>
	<path d="M68.2,362.9L68.2,362.9c1.2-1.8,2.9-3.9,6.9-3.9c5,0,9.5,3.9,9.5,11.8c0,6.3-2.8,12.3-9.6,12.3c-4.2,0-5.7-2.3-6.4-3.5
		h-0.1v11.8h-6v-31.7h5.8V362.9z M73.5,378.1c3.9,0,4.9-4.2,4.9-6.9c0-3.6-1.3-7-5.1-7c-4.1,0-5.1,3.7-5.1,7.3
		C68.2,374.9,69.7,378.1,73.5,378.1"/>
	<path d="M94.5,362.9L94.5,362.9c1.2-1.8,2.9-3.9,6.9-3.9c5,0,9.5,3.9,9.5,11.8c0,6.3-2.8,12.3-9.6,12.3c-4.2,0-5.7-2.3-6.4-3.5
		h-0.1v11.8h-6v-31.7h5.8V362.9z M99.7,378.1c3.9,0,4.9-4.2,4.9-6.9c0-3.6-1.3-7-5.1-7c-4.1,0-5.1,3.7-5.1,7.3
		C94.5,374.9,95.9,378.1,99.7,378.1"/>
	<rect x="115.2" y="351.6" width="6" height="30.8"/>
	<path d="M139.5,382.1c-2.8,8.5-3.6,9.6-8.8,9.6c-0.8,0-1.8,0-2.7-0.1v-4.8c0.3,0,0.6,0.1,1.2,0.1c2.2,0,3.4-0.3,3.9-3.4l-8.4-23.8
		h6.7l4.9,16.8h0.1l4.7-16.8h6.4L139.5,382.1z"/>
	<path d="M169,356.9h-6v-5.6h6V356.9z M169,382.5h-6v-22.8h6V382.5z"/>
	<path d="M195.4,382.5h-6v-13.9c0-1.7-0.1-4.5-3.9-4.5c-2.7,0-4.7,1.8-4.7,5.3v13.1h-6v-22.8h5.8v3.3h0.1c0.8-1.4,2.5-4,6.9-4
		c4.5,0,7.9,2.6,7.9,7.7V382.5z"/>
	<path d="M221.7,382.5h-6v-13.9c0-1.7-0.1-4.5-3.9-4.5c-2.7,0-4.7,1.8-4.7,5.3v13.1h-6v-22.8h5.8v3.3h0.1c0.8-1.4,2.5-4,6.9-4
		c4.5,0,7.9,2.6,7.9,7.7V382.5z"/>
	<path d="M237.6,383.1c-6.1,0-11.7-3.8-11.7-12c0-8.2,5.5-12,11.7-12c6.1,0,11.7,3.8,11.7,12C249.3,379.3,243.7,383.1,237.6,383.1
		 M237.6,364.1c-4.6,0-5.5,4-5.5,7c0,2.9,0.9,7,5.5,7c4.6,0,5.5-4,5.5-7C243.1,368.1,242.2,364.1,237.6,364.1"/>
	<polygon points="265.8,382.5 259.4,382.5 251.2,359.6 257.9,359.6 262.7,376.5 262.7,376.5 267.6,359.6 274,359.6 	"/>
	<path d="M295.9,378c0,2.7,0.6,3.3,1.3,3.6v0.9h-6.5c-0.3-1.1-0.4-1.4-0.6-2.7c-1.4,1.4-3.3,3.3-7.4,3.3c-3.4,0-7-1.9-7-6.7
		c0-4.5,2.8-6.7,6.7-7.3l5.4-0.8c0.9-0.1,2.1-0.5,2.1-1.8c0-2.5-2.4-2.7-4-2.7c-3,0-3.5,1.8-3.7,3.2h-5.8c0.7-7,5.5-8,10.2-8
		c3.2,0,9.1,1,9.1,6.6V378z M290,371.3c-0.6,0.5-1.6,0.9-4.1,1.2c-2.2,0.4-4.1,0.9-4.1,3.4c0,2.1,1.6,2.7,2.8,2.7
		c2.7,0,5.4-1.7,5.4-4.5V371.3z"/>
	<path d="M308,359.6h3.7v4.3H308v12.4c0,1.3,0,1.8,2.5,1.8c0.4,0,0.8,0,1.2-0.1v4.5c-0.9,0-1.9,0.1-2.8,0.1h-0.8
		c-5.2,0-6.1-2-6.1-4.9v-13.9h-3.1v-4.3h3.1v-6.2h6V359.6z"/>
	<path d="M321.7,356.9h-6v-5.6h6V356.9z M321.7,382.5h-6v-22.8h6V382.5z"/>
	<path d="M337.8,383.1c-6.1,0-11.7-3.8-11.7-12c0-8.2,5.5-12,11.7-12c6.1,0,11.7,3.8,11.7,12C349.5,379.3,343.9,383.1,337.8,383.1
		 M337.8,364.1c-4.6,0-5.5,4-5.5,7c0,2.9,0.9,7,5.5,7c4.6,0,5.5-4,5.5-7C343.3,368.1,342.4,364.1,337.8,364.1"/>
	<path d="M374.3,382.5h-6v-13.9c0-1.7-0.1-4.5-3.9-4.5c-2.7,0-4.7,1.8-4.7,5.3v13.1h-6v-22.8h5.8v3.3h0.1c0.8-1.4,2.5-4,6.9-4
		c4.5,0,7.9,2.6,7.9,7.7V382.5z"/>
	<rect x="548.6" y="262.2" class="st1" width="64.7" height="65.5"/>
	<path class="st2" d="M601.3,315.2c0,0-8.4-7.1-21.1-7.3c-11.7-0.2-19.9,6.4-19.9,6.4 M580.6,320.9c17.6,0.2,28.8-8,28.9-19.2
		c0-10.2-13.5-18.2-28.9-18.5c-18.3-0.3-28.2,8.3-28.2,18.5C552.3,311.9,564.4,320.8,580.6,320.9z"/>
	<line class="st3" x1="576.1" y1="283.8" x2="576.1" y2="307.6"/>
	<line class="st4" x1="576.1" y1="283.8" x2="576.1" y2="307.6"/>
	<line class="st3" x1="570.2" y1="284.3" x2="570.2" y2="309.2"/>
	<line class="st5" x1="570.2" y1="284.3" x2="570.2" y2="309.2"/>
	<line class="st3" x1="567.2" y1="285.4" x2="567.2" y2="310.1"/>
	<line class="st6" x1="567.2" y1="285.4" x2="567.2" y2="310.1"/>
	<line class="st3" x1="561.5" y1="287.3" x2="561.5" y2="313.6"/>
	<line class="st7" x1="561.5" y1="287.3" x2="561.5" y2="313.6"/>
	<line class="st3" x1="573.2" y1="284.1" x2="573.2" y2="308.1"/>
	<line class="st8" x1="573.2" y1="284.1" x2="573.2" y2="308.1"/>
	<path class="st0" d="M557.4,291c0,0-10.2,10.3,0.2,21.3v-21.6"/>
	<path class="st0" d="M580.8,297.5c-1.1,0-2.1-0.4-2.8-1.1c-0.5,0.6-0.8,1.4-0.8,2.3c0,2,1.6,3.6,3.6,3.6c2,0,3.6-1.6,3.6-3.6
		c0-0.9-0.3-1.7-0.8-2.3C582.9,297.1,581.9,297.5,580.8,297.5"/>
	<path class="st0" d="M584.1,263h-6.4l0.8,32.6c0.6,0.6,1.5,0.9,2.4,0.9c0.9,0,1.8-0.4,2.4-0.9L584.1,263z"/>
	<line class="st3" x1="559" y1="288.8" x2="559" y2="313.8"/>
	<line class="st9" x1="559" y1="288.8" x2="559" y2="313.8"/>
	<line class="st3" x1="564.2" y1="285.9" x2="564.2" y2="311.9"/>
	<line class="st10" x1="564.2" y1="285.9" x2="564.2" y2="311.9"/>
	<path d="M385.3,352.9h-2.5v7.2h-2.5v-7.2h-2.5V351h7.5V352.9z M392.5,356.5l2-5.5h3.4v9.1h-2.3v-6.2h0l-2.2,6.2h-1.8l-2.2-6.2h0
		v6.2H387V351h3.4L392.5,356.5z"/>
</g>
</svg>
