<svg version="1.1" xmlns="http://www.w3.org/2000/svg" width="16px" height="16px" viewBox="0 0 1024 1024"><path d="M0 512c0-282.453 229.547-512 512-512s512 229.547 512 512-229.547 512-512 512-512-229.547-512-512zM83.627 512c0 236.373 192 428.373 428.373 428.373s428.373-192 428.373-428.373-192-428.373-428.373-428.373-428.373 192-428.373 428.373zM280.747 378.027l231.253 231.253 231.253-231.253c16.213-16.213 42.667-16.213 58.88 0s16.213 42.667 0 58.88l-260.267 261.12c-16.213 16.213-42.667 16.213-58.88 0l-261.973-261.12c-16.213-16.213-16.213-42.667 0-58.88s42.667-16.213 59.733-0z"></path></svg>
